<mxfile host="app.diagrams.net" modified="2022-07-12T10:17:07.080Z" agent="5.0 (Macintosh; Intel Mac OS X 10_15_7) AppleWebKit/537.36 (KHTML, like Gecko) Chrome/103.0.0.0 Safari/537.36" etag="9TKbBSh971uJ1bV_n9Aq" version="20.0.4" type="github">
  <diagram id="prtHgNgQTEPvFCAcTncT" name="Page-1">
    <mxGraphModel dx="926" dy="527" grid="1" gridSize="10" guides="1" tooltips="1" connect="1" arrows="1" fold="1" page="1" pageScale="1" pageWidth="827" pageHeight="1169" math="0" shadow="0">
      <root>
        <mxCell id="0" />
        <mxCell id="1" parent="0" />
        <mxCell id="2JsTnB4-WRqFfuUob0uE-1" value="&lt;font style=&quot;vertical-align: inherit;&quot;&gt;&lt;font style=&quot;vertical-align: inherit;&quot;&gt;STS&lt;/font&gt;&lt;/font&gt;" style="ellipse;whiteSpace=wrap;html=1;aspect=fixed;" vertex="1" parent="1">
          <mxGeometry x="170" y="140" width="80" height="80" as="geometry" />
        </mxCell>
        <mxCell id="2JsTnB4-WRqFfuUob0uE-2" value="" style="swimlane;startSize=0;" vertex="1" parent="1">
          <mxGeometry x="110" y="120" width="200" height="130" as="geometry" />
        </mxCell>
        <mxCell id="2JsTnB4-WRqFfuUob0uE-3" value="&lt;font style=&quot;vertical-align: inherit;&quot;&gt;&lt;font style=&quot;vertical-align: inherit;&quot;&gt;Gitlab&lt;/font&gt;&lt;/font&gt;" style="text;html=1;align=center;verticalAlign=middle;resizable=0;points=[];autosize=1;strokeColor=none;fillColor=none;" vertex="1" parent="1">
          <mxGeometry x="95" y="95" width="50" height="30" as="geometry" />
        </mxCell>
        <mxCell id="2JsTnB4-WRqFfuUob0uE-10" value="" style="shape=flexArrow;endArrow=classic;html=1;rounded=0;width=24;endSize=5;exitX=0.5;exitY=1;exitDx=0;exitDy=0;" edge="1" parent="1" source="2JsTnB4-WRqFfuUob0uE-2">
          <mxGeometry width="50" height="50" relative="1" as="geometry">
            <mxPoint x="200" y="320" as="sourcePoint" />
            <mxPoint x="210" y="390" as="targetPoint" />
            <Array as="points" />
          </mxGeometry>
        </mxCell>
        <mxCell id="2JsTnB4-WRqFfuUob0uE-11" value="&lt;font style=&quot;vertical-align: inherit;&quot;&gt;&lt;font style=&quot;vertical-align: inherit;&quot;&gt;Jenkins&lt;/font&gt;&lt;/font&gt;" style="text;html=1;align=center;verticalAlign=middle;resizable=0;points=[];autosize=1;strokeColor=none;fillColor=none;" vertex="1" parent="1">
          <mxGeometry x="230" y="295" width="60" height="30" as="geometry" />
        </mxCell>
        <mxCell id="2JsTnB4-WRqFfuUob0uE-12" value="&lt;font style=&quot;vertical-align: inherit;&quot;&gt;&lt;font style=&quot;vertical-align: inherit;&quot;&gt;＋Abengers&lt;/font&gt;&lt;/font&gt;" style="text;html=1;align=center;verticalAlign=middle;resizable=0;points=[];autosize=1;strokeColor=none;fillColor=none;" vertex="1" parent="1">
          <mxGeometry x="245" y="315" width="90" height="30" as="geometry" />
        </mxCell>
        <mxCell id="2JsTnB4-WRqFfuUob0uE-14" value="" style="swimlane;startSize=0;" vertex="1" parent="1">
          <mxGeometry x="110" y="440" width="200" height="140" as="geometry" />
        </mxCell>
        <mxCell id="2JsTnB4-WRqFfuUob0uE-16" value="&lt;font style=&quot;vertical-align: inherit;&quot;&gt;&lt;font style=&quot;vertical-align: inherit;&quot;&gt;job1&lt;/font&gt;&lt;/font&gt;" style="ellipse;whiteSpace=wrap;html=1;aspect=fixed;" vertex="1" parent="2JsTnB4-WRqFfuUob0uE-14">
          <mxGeometry x="25" y="30" width="50" height="50" as="geometry" />
        </mxCell>
        <mxCell id="2JsTnB4-WRqFfuUob0uE-17" value="&lt;font style=&quot;vertical-align: inherit;&quot;&gt;&lt;font style=&quot;vertical-align: inherit;&quot;&gt;&lt;font style=&quot;vertical-align: inherit;&quot;&gt;&lt;font style=&quot;vertical-align: inherit;&quot;&gt;job2&lt;/font&gt;&lt;/font&gt;&lt;/font&gt;&lt;/font&gt;" style="ellipse;whiteSpace=wrap;html=1;aspect=fixed;" vertex="1" parent="2JsTnB4-WRqFfuUob0uE-14">
          <mxGeometry x="110" width="50" height="50" as="geometry" />
        </mxCell>
        <mxCell id="2JsTnB4-WRqFfuUob0uE-18" value="&lt;font style=&quot;vertical-align: inherit;&quot;&gt;&lt;font style=&quot;vertical-align: inherit;&quot;&gt;&lt;font style=&quot;vertical-align: inherit;&quot;&gt;&lt;font style=&quot;vertical-align: inherit;&quot;&gt;job3&lt;/font&gt;&lt;/font&gt;&lt;/font&gt;&lt;/font&gt;" style="ellipse;whiteSpace=wrap;html=1;aspect=fixed;" vertex="1" parent="2JsTnB4-WRqFfuUob0uE-14">
          <mxGeometry x="75" y="80" width="50" height="50" as="geometry" />
        </mxCell>
        <mxCell id="2JsTnB4-WRqFfuUob0uE-15" value="本番環境" style="text;html=1;align=center;verticalAlign=middle;resizable=0;points=[];autosize=1;strokeColor=none;fillColor=none;" vertex="1" parent="1">
          <mxGeometry x="85" y="405" width="70" height="30" as="geometry" />
        </mxCell>
        <mxCell id="2JsTnB4-WRqFfuUob0uE-19" value="" style="endArrow=classic;html=1;rounded=0;exitX=1;exitY=0.5;exitDx=0;exitDy=0;" edge="1" parent="1" source="2JsTnB4-WRqFfuUob0uE-17" target="2JsTnB4-WRqFfuUob0uE-20">
          <mxGeometry width="50" height="50" relative="1" as="geometry">
            <mxPoint x="390" y="430" as="sourcePoint" />
            <mxPoint x="430" y="485" as="targetPoint" />
          </mxGeometry>
        </mxCell>
        <mxCell id="2JsTnB4-WRqFfuUob0uE-20" value="&lt;font style=&quot;vertical-align: inherit;&quot;&gt;&lt;font style=&quot;vertical-align: inherit;&quot;&gt;JP1&lt;/font&gt;&lt;/font&gt;" style="ellipse;whiteSpace=wrap;html=1;aspect=fixed;" vertex="1" parent="1">
          <mxGeometry x="390" y="445" width="80" height="80" as="geometry" />
        </mxCell>
        <mxCell id="2JsTnB4-WRqFfuUob0uE-21" value="" style="endArrow=classic;html=1;rounded=0;exitX=1;exitY=0.5;exitDx=0;exitDy=0;entryX=0;entryY=0.5;entryDx=0;entryDy=0;" edge="1" parent="1" source="2JsTnB4-WRqFfuUob0uE-18" target="2JsTnB4-WRqFfuUob0uE-20">
          <mxGeometry width="50" height="50" relative="1" as="geometry">
            <mxPoint x="390" y="420" as="sourcePoint" />
            <mxPoint x="440" y="370" as="targetPoint" />
          </mxGeometry>
        </mxCell>
        <mxCell id="2JsTnB4-WRqFfuUob0uE-22" style="edgeStyle=orthogonalEdgeStyle;rounded=0;orthogonalLoop=1;jettySize=auto;html=1;exitX=1;exitY=0.5;exitDx=0;exitDy=0;" edge="1" parent="1" source="2JsTnB4-WRqFfuUob0uE-16">
          <mxGeometry relative="1" as="geometry">
            <mxPoint x="390" y="485" as="targetPoint" />
          </mxGeometry>
        </mxCell>
      </root>
    </mxGraphModel>
  </diagram>
</mxfile>
